# xmcd
#
# Track frame offsets:
#	150
#	14945
#	28350
#	42442
#	55720
#	78725
#	95550
#	109997
#	127542
#	138170
#	150770
#
# Disc length: 2201 seconds
#
# Revision: 0
# Processed by: cddbd v1.4PL0 Copyright (c) Steve Scherf et al.
# Submitted via: dBpowerAMP V4.0
#
DISCID=8b08970b
DTITLE=Steve Vaus - American History
DYEAR=1999
DGENRE=Country
TTITLE0=Star Spangled Banner
TTITLE1=Battle Cry of Freedom
TTITLE2=Dixie
TTITLE3=Yellow Rose of Texas - Oh Susannah (Medley)
TTITLE4=Hard Times Come Again No More
TTITLE5=When Johnny Comes Marching Home
TTITLE6=I Pledge Allegiance
TTITLE7=America The Beautiful
TTITLE8=This Land is Your Land
TTITLE9=Yankee Doodle
TTITLE10=My Country Tis of Thee
EXTD=
EXTT0=
EXTT1=
EXTT2=
EXTT3=
EXTT4=
EXTT5=
EXTT6=
EXTT7=
EXTT8=
EXTT9=
EXTT10=
PLAYORDER=
